# xmcd
#
# Track frame offsets:
#	150
#	15381
#	27667
#	47317
#	61745
#	75419
#	87421
#	102391
#	117114
#	135020
#	151090
#	167185
#	182047
#	195948
#	212297
#	228535
#	245281
#	261170
#	276039
#	293679
#
# Disc length: 4154 seconds
#
# Revision: 0
# Processed by: cddbd v1.5.2PL0 Copyright (c) Steve Scherf et al.
# Submitted via: audiograbber 1.83.01
#
DISCID=f3103814
DTITLE=Various Artist - 100 Hits Disco Fever CD3
DYEAR=1900
DGENRE=Disco
TTITLE0=Gladys Knight and The Pips - Come Back And Finish What You Started
TTITLE1=The Three Degrees - Year Of Decision
TTITLE2=Phyllis Hyman - You Sure Look Good To Me
TTITLE3=Esther Phillips - What A Difference A Day Makes
TTITLE4=Andrea True Connection - More, More, More
TTITLE5=Eruption - I Can't Stand The Rain
TTITLE6=The Nolans - I'm In The Mood For Dancing
TTITLE7=LaBelle - Lady Marmalade
TTITLE8=Pointer Sisters - Jump (For My Love)
TTITLE9=The Weather Girls - It's Raining Men
TTITLE10=Frantique - Strut Your Funky Stuff
TTITLE11=Evelyn 'Champagne' King - Shame
TTITLE12=Tina Charles - I Love To Love
TTITLE13=Baccara - Sorry I'm A Lady
TTITLE14=Linda Lewis - Baby I'm Yours
TTITLE15=The Jones Girls - Nights Over Egypt
TTITLE16=Melba Moore - This Is It
TTITLE17=Boz Scaggs - Lowdown
TTITLE18=Beggar and Co - Mule (Chant No 2)
TTITLE19=Herbie Hancock - You Bet Your Love
EXTD=(p)2014 Demon Music Group
EXTT0=
EXTT1=
EXTT2=
EXTT3=
EXTT4=
EXTT5=
EXTT6=
EXTT7=
EXTT8=
EXTT9=
EXTT10=
EXTT11=
EXTT12=
EXTT13=
EXTT14=
EXTT15=
EXTT16=
EXTT17=
EXTT18=
EXTT19=
PLAYORDER=
